<?xml version="1.0" encoding="utf-8"?>
<!-- Generator: Adobe Illustrator 26.3.1, SVG Export Plug-In . SVG Version: 6.00 Build 0)  -->
<svg version="1.1" id="Capa_1" xmlns="http://www.w3.org/2000/svg" xmlns:xlink="http://www.w3.org/1999/xlink" x="0px" y="0px"
	 viewBox="0 0 539 542" style="enable-background:new 0 0 539 542;" xml:space="preserve">
<style type="text/css">
	.st0{fill:#003764;}
	.st1{fill:#063C5D;}
	.st2{fill:#FFFFFF;}
	.st3{fill:#7B868C;}
	.st4{fill:#FABE00;}
	.st5{fill:none;stroke:#063C5D;stroke-width:2.2;}
	.st6{fill:none;stroke:#063C5D;stroke-width:3.41;stroke-linecap:round;stroke-linejoin:round;}
	.st7{fill:#D7282F;}
</style>
<path class="st0" d="M207.4,238.7c0,0,10.4-5.4,13.9-1.2c0,0-5.2,37.3,7.6,47c7.9,6.1,14.6-40.7,4.7-43.8c0,0,15.6,2.8,23.2-1.1
	c0,0-8.2,29.3,2.2,37.8c4.4,3.6,5.8,2.3,6.3-3.1c0.5-5.5,3.4-33.3,0-34.7c-3.4-1.4,10.9-2.5,12.6,2.1c1.7,4.5-15.1,36.8,21.3,41.5
	c0,0,8.5,17.7,3.2,33.6c-1.8,5.1-3.4,8.5-3.2,15.9c0.8,7.1,4.3,8.1,15.7,19.9c12.3,12.7,25.8,43.7,25.7,59.6
	c0,8.8-0.9,27.4-4.3,37.2c-2.1,5.9-0.7,18.6,3.1,22.1c1.8,1.6-2.2,23.2-14.7,27.2c0,0-18.8,2.7-29.3,2.2
	c-10.4-0.5-29.3-0.5-30.8-7.8c0,0-0.6-57.6-1.1-61.9c-0.4-4.4-2-15.2-12.4-24.8c0,0-6.4,26.9-10.6,35.9c-4.2,9-21.3,35.5-39.4,45.3
	c-8.3,4.5,0.5,18.6-2.8,23.7c1.6,3-37.8,8.6-64.8-27.2c-15.4-20.5-15.8-46.3-10.7-49.1c6.6-3.5,19-5.2,27.1-13.2
	c0,0,20.4-24,24.7-43.8c8.7-39.7,0.2-42.3,4.5-59.3c0,0,2.3-15.4,3.9-15.9c0,0,14.9,3.3,23.6-28.6
	C214,246.7,207.8,242.1,207.4,238.7"/>
<path class="st1" d="M206.7,237.3l-1.2,0.6l0.3,0.9l0.8,2.7c1.5,3.6,4.3,10.5-1.7,32.3c-8.1,29.9-21.7,27.6-21.8,27.6l-0.4-0.1
	l-0.4,0.1c-0.9,0.2-2.5,0.7-4.9,17.1c-1.8,7-1.4,11.8-1,17.5c0.7,8.3,1.5,18.5-3.5,41.7c-4.1,19.1-24.1,42.9-24.3,43.1
	c-5.1,5-12.1,7.4-18.3,9.5c-3.1,1.1-6.1,2.1-8.4,3.3c-1.5,0.8-2.5,2.7-3.2,5.5c-2,9.1,0.9,29.3,13.4,45.9
	c26,34.4,61.9,31.1,66.4,28.3c0.9-0.6,1.2-1.2,1.2-1.9c0.5-1.1,0.8-2.2,0.8-3.5c0-1.9-0.4-4.1-0.8-6.3c-0.5-2.7-0.9-4.9-0.9-6.8
	c0-2.7,0.8-4.7,2.9-5.8c18.8-10.3,36.2-37.7,40-46c3.5-7.4,8.3-26.4,10-33.5c5.7,6,9.2,13.3,10.1,21.8c0.4,3.4,0.9,41.9,1.1,61.8
	v0.3c1.7,7.8,17.7,8.4,29.3,8.9l3,0.1c10.5,0.5,28.8-2.1,29.6-2.2c8.8-2.8,13.9-13.1,15.7-21.8c0.9-4.4,0.8-7.1-0.3-8.1
	c-3.1-2.8-4.7-14.7-2.7-20.5c4.1-11.8,4.4-35,4.4-37.7c0.2-16.2-13.3-47.4-26.2-60.6l-7.8-7.7c-5.3-5-7-6.6-7.5-11.3
	c-0.2-6.1,1-9.4,2.5-13.5l0.6-1.8c5.4-16.3-2.9-34.1-3.3-34.7l-0.4-0.8l-0.8-0.1c-9.2-1.2-15.5-4.2-19-9.2
	c-5.3-7.4-3.1-17.7-1.8-24.5c0.7-3.4,1.2-5.5,0.6-6.9c-1.7-4.3-10-4.4-12.7-4.1c-1,0.2-3.1,0.4-3.3,2c0,0.1,0,0.2,0,0.2
	c0,0.5,0.2,1.3,1.5,1.8c0.3,0.4,0.7,2.1,0.7,7.1c0,4.5-0.3,12-1.4,24l-0.2,2.2c-0.3,3.2-0.8,3.7-0.9,3.7c0,0-0.7,0.1-2.9-1.8
	c-3.6-2.9-4.7-8.8-4.7-15c0-10.1,3-21,3.1-21.2l0.9-3.3l-3.1,1.6c-7.1,3.5-22.1,1-22.3,0.9l-0.7,3c1.8,0.6,3.1,3.9,3.7,9
	c1.3,12.7-2.6,30.3-6.1,32.3c-0.2,0.1-0.4,0.2-0.8-0.2c-12-9.1-7.1-45.2-7.1-45.6l0.1-0.8l-0.5-0.5
	C218.3,231.6,207.9,236.7,206.7,237.3 M219.7,238.2c-0.2,2.1-1,8.2-1,15.8c0,11.6,1.7,25.9,9.3,31.8c1.3,1,2.8,1.1,4.2,0.3
	c5-2.8,7.9-18.4,7.9-29.9c0-1.9-0.1-3.7-0.3-5.4c-0.4-3.4-1-6.1-2-8c4.5,0.4,11.4,0.8,16.8-0.8c-1,4-2.4,11.4-2.4,18.9
	c0,7.1,1.4,14,5.8,17.6c1.8,1.6,4,3,6,2.2c2-0.8,2.5-3.5,2.7-6.3l0.2-2.2c1-10.8,1.4-18.2,1.4-23.3c0-4.8-0.4-7.4-1.1-9
	c2-0.2,5.1-0.1,7.4,0.8c1,0.4,1.6,0.8,1.7,1.3c0,0.1,0,0.2,0,0.4c0,0.9-0.4,3-0.8,4.8c-0.8,3.5-1.7,8.1-1.7,13
	c0,4.9,0.9,9.7,3.9,13.9c3.9,5.5,10.7,8.8,20.2,10.3c1,2.3,4.4,11,4.4,20.9c0,3.6-0.4,7.2-1.6,10.9l-0.6,1.7
	c-1.5,4-2.7,7.5-2.7,13.6c0,0.4,0,0.8,0,1.2c0.6,5.9,2.9,8.1,8.5,13.3l7.6,7.5c12.1,12.6,25.3,43,25.3,58.3v0.2
	c-0.1,11.5-1.3,28.1-4.3,36.7c-0.7,2-1.1,4.7-1.1,7.6c0,6.3,1.6,13.4,4.6,16.1l-0.2-0.3c0.4,1-0.2,7.3-3.3,14
	c-2,4.1-5.3,9.2-10.6,10.9c0,0-18.6,2.5-28.7,2.1l-3-0.1c-8.8-0.3-25.1-1-26.4-6.4c0-3.9-0.6-57.6-1.1-61.9
	c-1.1-10.3-5.5-18.9-12.9-25.8l-2-1.8l-0.6,2.5c-0.1,0.2-6.4,26.8-10.5,35.6c-3.8,8.1-20.6,34.8-38.7,44.7c-3.5,1.9-4.5,5.1-4.5,8.6
	c0,2.4,0.5,5,0.9,7.3c0.4,2,0.8,4.1,0.8,5.7c0,1.1-0.2,2-0.6,2.5c0,0-0.2,0.2-0.3,0.4c-1.4,0.7-6.5,1.7-14.4,0.8
	c-10.7-1.2-31.1-6.6-47.6-28.5c-9.7-12.8-13.3-27.9-13.3-37.6c0-2.2,0.2-4.1,0.5-5.7c0.4-2.2,1.1-3.1,1.6-3.5
	c2.1-1.1,4.9-2.1,7.9-3.1c6.2-2.2,13.9-4.8,19.6-10.3c1-1.2,20.7-24.7,25.1-44.7c3.3-15.1,4.1-24.9,4.1-32.1c0-4.1-0.3-7.4-0.5-10.5
	c-0.2-2.4-0.4-4.5-0.4-6.9c0-2.9,0.3-6,1.3-9.8c0.9-6.1,2.3-13,3.1-14.7c3.7,0.2,16.6-1.2,24.3-29.8c2.8-10.4,3.8-17.6,3.8-22.8
	c0-6.1-1.3-9.4-2.2-11.5c0,0-0.1-0.4-0.3-0.8c2.9-1.3,8.1-3.1,10.4-1.4"/>
<path class="st2" d="M221.1,243.7c0.3-3.5,0.6-5.9,0.7-6.1c0,0,31.7,5.9,42.5,1.5c3.2-1.2,9.6,55.2-16.6,55.2
	c-17.1,0-19.1-8.5-24.4-21C220.2,266.5,220.3,252.1,221.1,243.7"/>
<path class="st1" d="M220.2,237.3l-0.7,6.2c-0.2,2.8-0.4,6.5-0.4,10.5c0,7.1,0.6,15.1,2.7,20l1.3,3.1c4.6,10.8,7.9,18.7,24.5,18.7
	c7.6,0,13.6-4.5,17.2-13.2c6.4-15.4,4-41.3,1-44.5c-0.6-0.6-1.4-0.8-2.1-0.5c-10.2,4.1-41.3-1.6-41.6-1.7l-1.6-0.2L220.2,237.3
	L220.2,237.3z M226,275.9l-1.4-3.1c-1.8-4.1-2.5-11.4-2.5-18.8c0-3.5,0.2-7.1,0.4-10.2c0,0,0.3-2.7,0.5-4.4
	c6.3,1.2,30.2,4.9,40.7,1.6c0.9,1.8,2,8.8,2,17.4c0,8.6-1.1,17.7-4.6,24.9c-3.1,6.4-7.7,9.6-13.6,9.6
	C233,292.9,230.3,286.5,226,275.9"/>
<rect x="79.1" y="217.3" class="st3" width="294.1" height="13.2"/>
<g>
	<g>
		<path class="st4" d="M145.6,306.2c0,0-20.8,19-17.3,36.5c0,0,0.4,3.1,4.9,1.3c0,0,3.5,5.8,8.8,0.9c0,0,7.5,4,9.7,0.5
			c0,0,4.9,4.4,9.7-0.9c0,0,6.1,8.4,10.2,0.9c3.9-7.5,9.3-10,3.1-29.6C172.6,310,149.5,305.2,145.6,306.2"/>
		<path class="st1" d="M145.2,304.4l-0.4,0.1l-0.3,0.3c-0.9,0.8-21.5,19.8-17.8,38.3c0,0.1,0.3,1.8,1.9,2.7c1.1,0.6,2.4,0.5,3.9,0.2
			c0.8,0.9,2.3,2.3,4.5,2.6c1.8,0.2,3.5-0.4,5.2-1.7c2.1,1,6.8,2.6,9.7,0.6c2.2,1.4,5.7,2.2,9.3-0.7c1.4,1.5,3.9,3.6,6.7,3.4
			c1.4-0.1,3.5-0.8,5.2-4.1l2-3.3c3.5-5.7,6.7-10.5,1.2-27.6C173.9,308.1,149.5,303.4,145.2,304.4 M172.9,316.3
			c4.9,15.5,2.4,19.5-0.8,24.6l-2.2,3.5c-0.7,1.4-1.5,2.2-2.4,2.2c-1.8,0.1-4.1-2.4-4.8-3.3l-1.3-1.8l-1.5,1.6
			c-3.4,3.8-6.6,1.3-7.2,0.8l-1.6-1.3l-1.1,1.8c-1,1.5-5.3,0.1-7.4-1.1l-1.1-0.6l-0.9,0.9c-1.2,1.1-2.3,1.6-3.3,1.4
			c-1.6-0.2-2.7-2-2.8-2l-0.8-1.2l-1.4,0.6c-1.2,0.5-1.9,0.5-2.2,0.3c-0.2-0.1-0.2-0.3-0.2-0.3c-0.2-1.3-0.4-2.6-0.4-3.8
			c0-14.4,14.7-28.9,16.7-30.8C150.7,307.3,171.4,312.2,172.9,316.3"/>
		<path class="st2" d="M307.2,151.2c3.3,3.6,1.2,26.8,1.2,26.8c0.4,16.8-8.5,8.7-9.1,12.6c-0.6,3.8-13.1,27.6-23.6,37.2
			c-10.5,9.5-24.5,16.1-49.4,9.8c-24.9-6.2-35-43.2-35-43.2c-17.8,0.6-11.3-30.2-11.3-30.2l12.7-7.5l23.7-12.7L307.2,151.2
			L307.2,151.2z"/>
		<path class="st1" d="M192,155.1l-13.5,8l-0.1,0.8c-0.1,0.4-1.2,5.8-1.2,12c0,5.6,0.9,12,4.3,16.1c2.2,2.5,5.1,3.8,8.6,4
			c1.9,6.4,12.5,37.4,35.9,43.4c27.4,6.9,41.7-1.9,50.9-10.3c10.8-9.8,23.1-33.1,24.1-37.9c0.3-0.1,0.9-0.1,0.9-0.1
			c1.5,0,3.7,0,5.6-1.8c1.8-1.8,2.7-5.1,2.7-10.1c0-0.3,0-0.6,0-0.9c0.5-1.7,2-6.5,2-10.8c0-2.5-0.4-4.8-1.8-6.3l-2.6,2.4
			c1.8,2,0.5,9.4-1,14l-0.1,0.2v0.3c0.2,5.6-0.8,7.8-1.6,8.7c-0.7,0.8-1.6,0.8-3.1,0.8c-1.3,0-3.9,0-4.3,2.7
			c-0.5,3.2-12.7,26.8-23.1,36.2c-8.7,7.9-21.9,16-47.7,9.5c-23.5-6-33.6-41.7-33.7-42.1l-0.4-1.3l-1.4,0.1
			c-3.1,0.1-5.4-0.8-7.2-2.9c-2.7-3.2-3.5-8.7-3.5-13.7c0-5,0.7-9.2,1-10.7c1.2-0.8,12.1-7.2,12.1-7.2c-0.1,0.1,23.5-12.7,23.5-12.7
			l-1.7-3.1L192,155.1L192,155.1z"/>
		<path class="st1" d="M227.3,156.7c-1.7,1.5-2.5,3.8-2.5,7c0,8.3,3.3,9.1,7.1,9.3c2,0.1,3.7-0.6,5.1-1.9c1.8-1.7,2.8-4.4,2.8-7.4
			c0,0,0-1.3,0-1.6c0-3.1-0.5-6.7-7.1-7.1C232.4,154.9,229.5,154.6,227.3,156.7 M231.8,172.2c-3.4-0.2-6.3-0.9-6.3-8.5
			c0-2.9,0.8-5,2.3-6.3c2-1.9,4.7-1.6,4.8-1.6l0,0c6.4,0.3,6.3,3.7,6.3,7.1v0.8c0,2.7-1,5.3-2.6,6.8
			C235,171.7,233.4,172.2,231.8,172.2 M232.5,155L232.5,155z"/>
		<path class="st1" d="M259.2,157.1c-1.7,1.5-2.5,3.8-2.5,7c0,8.3,3.3,9.1,7.1,9.3c2,0.1,3.7-0.6,5.1-1.9c1.8-1.7,2.9-4.4,2.9-7.4
			c0,0,0-1.3,0-1.6c0-3.1-0.4-6.8-7.1-7.1C264.5,155.3,261.5,155,259.2,157.1 M263.8,172.5c-3.6-0.2-6.3-0.8-6.3-8.4
			c0-2.9,0.8-5.1,2.2-6.4c2-1.8,4.8-1.5,4.8-1.5l0,0c6.4,0.3,6.3,3.7,6.3,7.1v0.8c0,2.8-1,5.2-2.6,6.8
			C267,172,265.5,172.6,263.8,172.5 M264.5,155.4L264.5,155.4z"/>
		<path class="st0" d="M167.3,155.2c0,0,1.2,12.5,27.6,8c0,0,1.3,15.3,0.8,17c-0.4,1.8,11.7-7.5,13.8-14.3l0.8-11.9
			c0,0,72.9,0.2,77.2-0.2c0,0,4.6,19.1,12.3,22.9l0.7-16.1c0,0,10.9,1.4,15,2.1c0,0,6.8-8.8-2.3-9.5c0,0,1.6-28.6-2.5-38.8
			c-4.1-10.2-7.3-33-50.4-47.9c0,0-11.3-3.5-31.2,0c-18.2,3.1-23.5,7.1-37,19.1C164.2,110.6,167.5,152.7,167.3,155.2"/>
		<path class="st1" d="M228.9,64.8c-19,3.3-24.6,7.6-37.9,19.6c-23.2,20.7-25.9,52.7-25.5,69.9l0.1,1.2c0,0,0.4,3.7,4.3,6.7
			c4.9,3.7,12.8,4.7,23.5,3.1c0.4,5.5,0.8,11.1,0.8,13.6c0,0.5,0,0.9-0.1,1.1c0,0.2,0,0.3,0,0.5c0,0.9,0.6,1.7,1.4,1.8
			c2.9,0.8,14-9.5,15.9-15.7v-0.2c0,0,0.6-8,0.8-10.5c10.2,0.1,63.8,0.2,74.2-0.1c1.3,4.7,5.7,19,12.8,22.7l2.4,1.2
			c0,0,0.6-13.8,0.7-16.8c2.9,0.3,14,1.9,14,1.9l0.7-0.8c0.3-0.4,2.8-3.7,2.8-7c0-0.8-0.2-1.5-0.4-2.2c-0.7-1.5-2.2-2.3-4.2-2.8
			c0.1-2.1,0.2-6.2,0.2-11.2c0-9.1-0.5-20.9-2.9-26.9l-1.3-3.7c-4.1-11.8-11-31.6-50.2-45.3C260.4,64.6,248.9,61.2,228.9,64.8
			 M169.1,154c0-1,0-2.1,0-3.2c0-17.1,3.5-45.4,24.3-63.9c13-11.7,18-15.5,36.1-18.6c19.1-3.4,30.2-0.1,30.3-0.1
			c37.6,13,44.1,31.9,47.9,43.1l1.4,3.8c2.2,5.5,2.7,16.7,2.7,25.5c0,6.9-0.3,12.3-0.3,12.5l-0.1,1.7l1.7,0.2
			c0.9,0.1,2.5,0.3,2.9,1.2c0.1,0.2,0.1,0.4,0.1,0.7c0,1.2-0.8,2.7-1.6,4c-2-0.2-15.7-2.2-15.7-2.2l-0.1,1.9c0,0-0.4,8.4-0.5,12.7
			c-4.5-4.8-7.9-15.5-9-19.9l-0.4-1.5l-1.6,0.2c-3.3,0.3-51.9,0.3-77,0.2h-1.7c0,0-0.9,12.8-0.9,13.3c-1.3,4.1-6.9,9.5-10.2,11.9
			c0-4.1-0.6-11-0.9-14.4l-0.2-1.9l-1.9,0.3c-13.2,2.3-19.5,0.2-22.5-2.1c-2.7-2-3-4.1-3-4.3C169.1,154.7,169.1,154,169.1,154"/>
		<path class="st1" d="M246.1,174.7l0.4-0.1c-4-0.2-11.8,1.2-12.7,7.8c-0.3,2,0.2,3.7,1.3,5c1.9,2.2,5.6,3.2,11.1,3.2
			c1.9,0,7.2-0.8,10.2-3.8c1.5-1.4,2.2-3.3,2.2-5.5c0-1.8-1-3.3-2.7-4.5C252.4,174.6,246.7,174.5,246.1,174.7 M246.6,176.4
			c0.8-0.1,6.3,0.2,8.9,2.5c0.8,0.8,1.2,1.6,1.2,2.6c0,1.7-0.5,3.1-1.7,4.2c-2.7,2.7-7.6,3.1-8.7,3.1c-5.2,0.1-8.5-0.8-10-2.5
			c-0.8-0.9-1.1-2.1-0.9-3.6c0.9-6.7,10.8-6.2,11-6.2h0L246.6,176.4L246.6,176.4z"/>
		<path class="st1" d="M237.9,157.3c-1-1.8-5.5,2.2-6.1,6.5c0,0-1.2,8,2.9,8.1C238.1,172,240.6,162,237.9,157.3"/>
		<path class="st1" d="M269.9,157.7c-1.1-1.8-5.5,2.2-6.1,6.5c0,0-1.1,8,2.9,8C270.1,172.4,272.6,162.4,269.9,157.7"/>
		<path class="st5" d="M186,170.2c0,0,4.4,2.1,2,10"/>
		<path class="st2" d="M206.9,239.3c0,0-33.1,9.8-61.6,65.4c0,0,29.8,6.1,34.2,12.6c6.7-24.3,7.9-31.4,15.3-42.1
			c0,0-11.7,24-11.1,27c0.6,2.9,13.5-1.5,20.6-20.9C211.3,262,211,245.8,206.9,239.3"/>
		<path class="st1" d="M206.4,237.6c-1.4,0.4-34.1,10.7-62.7,66.2l-1.1,2.1l2.3,0.4c11.2,2.4,30.2,7.7,33.1,12l2.2,3.1
			c0,0,4.2-15.5,4.5-16.7c4.4,0.3,15.1-6.1,21.2-22.9c7.5-20.7,6.6-37.1,2.5-43.6l-0.8-1.2L206.4,237.6L206.4,237.6z M206,241.5
			c1.2,2.7,2,6.6,2,11.6c0,7.4-1.6,17-5.4,27.6c-5.5,15.2-14,20-16.8,20.5c0.4-1.4,0.8-2.7,1.2-4c2-5.2,5.7-13.5,9.4-21.1l-3.1-1.8
			c-4.9,7.1-7.1,12.6-9.9,22.5c-0.7,1.9-1.2,3.5-1.3,4.6c-0.6,1.9-1.1,4-1.7,6.3c0,0-1.1,3.8-1.8,6.5c-7-5.1-24.1-9.3-30.6-10.7
			C172.2,257.3,199.6,244,206,241.5"/>
		<path class="st2" d="M278.8,241.7c0,0,18.4,8.5,39.2,3.4c7.1-1.8,6.2-3.3,7.9-5.1c0,0,14.1,8.5,19.7,11.8c0,0-4.5,38.6-45.7,30.3
			c-4.1-0.8-15.1-2.6-20.8-12.4C273.9,260.6,277.6,252.7,278.8,241.7"/>
		<path class="st1" d="M324.7,238.8l-1.2,1.5c-0.7,1-1.3,1.8-5.9,3.1c-19.9,5-37.9-3.1-38.1-3.2l-2.1-1l-1.5,9.9
			c-1.3,7.2-2.5,14.1,1.8,21.6c5.7,10,16.7,12.2,21.4,13.1l0.5,0.1c13.2,2.7,24.1,1,32.6-5.1c13.1-9.5,15.1-25.9,15.3-26.6l0.1-1.1
			l-22-13.1L324.7,238.8L324.7,238.8z M318.4,246.8c5.5-1.3,6.8-2.6,7.9-4.4c2.2,1.3,15.6,9.3,17.3,10.4
			c-0.6,3.5-3.6,15.8-13.6,23.1c-7.6,5.5-17.6,7-29.8,4.5l-0.6-0.1c-4.2-0.9-14.1-2.8-19-11.4c-1.9-3.3-2.5-6.5-2.5-9.7
			c0-3,0.6-6.1,1.2-9.5c0,0,0.5-3.1,0.8-5.5C285.6,246.4,301.1,251.2,318.4,246.8"/>
		<path class="st1" d="M320.2,245.6c0.4,0.7,10.2,14.3,22.1,18l0.5-1.8c-11.3-3.4-21.1-17-21.2-17.2L320.2,245.6L320.2,245.6z"/>
		<path class="st1" d="M152.2,295.4c0.2,0,23,0.3,30.3,9.8l1.4-1.1c-7.8-10.2-30.7-10.4-31.6-10.4L152.2,295.4L152.2,295.4z"/>
		<path class="st4" d="M255.7,322c0,3.7-2.9,6.6-6.6,6.6s-6.6-2.9-6.6-6.6s3-6.6,6.6-6.6S255.7,318.4,255.7,322"/>
		<path class="st1" d="M241.3,322c0,4.3,3.5,7.8,7.8,7.8s7.8-3.5,7.8-7.8s-3.5-7.7-7.8-7.7S241.3,317.8,241.3,322 M243.6,322
			c0-3,2.5-5.5,5.5-5.5s5.5,2.5,5.5,5.5s-2.5,5.5-5.5,5.5S243.6,325.1,243.6,322"/>
		<path class="st4" d="M257,342.3c0,3.7-2.9,6.6-6.6,6.6s-6.6-3-6.6-6.6s2.9-6.6,6.6-6.6S257,338.7,257,342.3"/>
		<path class="st1" d="M242.6,342.3c0,4.3,3.5,7.8,7.8,7.8c4.3,0,7.8-3.5,7.8-7.8s-3.5-7.7-7.8-7.7
			C246.1,334.6,242.6,338.1,242.6,342.3 M244.9,342.3c0-3,2.4-5.5,5.5-5.5c3,0,5.5,2.5,5.5,5.5s-2.4,5.5-5.5,5.5
			C247.4,347.7,244.9,345.3,244.9,342.3"/>
		<path class="st4" d="M259.2,361.7c0,3.7-3,6.6-6.6,6.6c-3.6,0-6.6-2.9-6.6-6.6c0-3.7,2.9-6.5,6.6-6.5
			C256.2,355.1,259.2,358.1,259.2,361.7"/>
		<path class="st1" d="M244.8,361.7c0,4.3,3.5,7.8,7.8,7.8s7.7-3.5,7.7-7.8c0-4.3-3.5-7.7-7.7-7.7S244.8,357.5,244.8,361.7
			 M247.1,361.7c0-3,2.4-5.5,5.5-5.5c3.1,0,5.5,2.5,5.5,5.5c0,3-2.5,5.5-5.5,5.5C249.6,367.1,247.1,364.7,247.1,361.7"/>
		<path class="st1" d="M153,307.6c0,0-3.6,4.2-4.5,11.3c0,0.2,0.2,0.5,0.4,0.5c0.2,0.1,0.5-0.1,0.5-0.3c0.8-6.9,4.3-10.8,4.3-10.8
			c0.2-0.2,0.2-0.4,0-0.6C153.5,307.4,153.2,307.4,153,307.6"/>
		<path class="st1" d="M159.2,308.5c-0.2,0.2-3.6,4.8-4.5,13c0,0.2,0.1,0.5,0.4,0.5c0.2,0,0.5-0.1,0.5-0.4
			c0.8-7.8,4.3-12.5,4.3-12.5c0.2-0.2,0.1-0.5-0.1-0.7C159.6,308.2,159.3,308.3,159.2,308.5"/>
		<path class="st1" d="M164.9,308.5c-0.2,0.2-3.6,4.8-4.5,13c0,0.2,0.2,0.5,0.4,0.5c0.2,0,0.4-0.1,0.5-0.4
			c0.8-7.8,4.3-12.5,4.3-12.5c0.1-0.2,0.1-0.5-0.1-0.7C165.4,308.2,165.1,308.3,164.9,308.5"/>
		<path class="st1" d="M135.5,332.9c-2.7,3.7-2.9,10.4-2.9,10.6c0,0.5,0.4,0.9,0.8,0.9c0.5,0,0.9-0.4,0.9-0.8c0-0.1,0.2-6.5,2.6-9.6
			c0.3-0.4,0.2-1-0.2-1.2C136.3,332.4,135.8,332.5,135.5,332.9"/>
		<path class="st1" d="M144.2,331.8c-2.9,4-3.7,11.8-3.7,12.2c0,0.4,0.3,0.8,0.8,0.9c0.5,0,0.9-0.3,0.9-0.8c0-0.1,0.7-7.8,3.4-11.3
			c0.2-0.4,0.2-0.9-0.2-1.2C145,331.4,144.6,331.5,144.2,331.8"/>
		<path class="st1" d="M156.1,330.8c-3.6,4-5.7,12.7-5.8,13.1c-0.1,0.5,0.2,1,0.6,1.1c0.5,0.2,1-0.2,1.1-0.7c0-0.1,2.1-8.7,5.4-12.3
			c0.3-0.4,0.3-1,0-1.3C156.9,330.5,156.4,330.5,156.1,330.8"/>
		<path class="st1" d="M165.1,335.5c-3.3,2.7-4.7,8.5-4.7,8.9c-0.1,0.4,0.2,0.9,0.7,1c0.5,0.2,1-0.2,1.1-0.7c0-0.1,1.3-5.5,4.1-7.9
			c0.4-0.3,0.4-0.9,0.1-1.2C166.1,335.2,165.5,335.2,165.1,335.5"/>
		<path class="st4" d="M287.4,494.2l35.3-0.6c0,0,10.6-4.1,10.6-19.4c0-15.3-4.7-15.3-15.9-15.9c-11.2-0.6-21.7,8.8-24.1,11.2
			c-2.4,2.3-18.8,14.3-14.7,24.9C278.6,494.4,287.4,494.2,287.4,494.2z"/>
		<path class="st1" d="M292.1,468.3l-1.5,1.3c-5.3,4.5-17.6,15.2-13.6,25.4l0.5,1.2l10-0.2l35.6-0.6l0.3-0.1
			c0.5-0.2,11.7-4.7,11.7-21s-5.2-17-17-17.6h-0.5C304.8,455.9,293.4,467,292.1,468.3 M279.8,490.9c0-7.4,9.4-15.3,13.1-18.6
			l1.7-1.5c0.4-0.5,11.4-11.3,22.8-10.7l0.5,0.1c10.8,0.6,13.7,0.7,13.7,14.1c0,13.4-7.9,17-9.2,17.6c-0.7,0-34.9,0.6-34.9,0.6
			s-5.3,0.1-7.4,0.2C280,492,279.8,491.4,279.8,490.9"/>
		<path class="st4" d="M359.2,208.9c0,0-10.2,1.8-10,6.7c0,0,10-0.2,9.3,4.5c3.5,4.4,7,4.5,9.5,0.2c4.1-7.1-8.8-12.9-9.7-11"/>
		<path class="st1" d="M347.4,215.6l0.1,1.8h1.7c2.4-0.1,6.3,0.5,7.3,1.8c0.2,0.2,0.3,0.4,0.2,0.8l-0.1,0.8l0.5,0.6
			c2.3,2.9,4.6,4.2,7,4.1c1.5-0.1,3.6-0.9,5.5-4.1c1.5-2.5,1.4-5.3-0.2-7.8c-2.4-3.9-7.9-6.4-10.4-6.3c0,0,0,0.1,0,0.1v-0.1
			C357.7,207.4,347.2,209.4,347.4,215.6 M359.4,209.8l0.6,0.2c-0.1,0.2-0.3,0.3-0.5,0.4C359.5,210.4,359.4,210.1,359.4,209.8
			 M359.3,210.7L359.3,210.7c0.9-0.2,5.1,1.5,7.1,4.4c1,1.5,1.1,2.9,0.2,4.3c-0.6,1-1.6,2.2-2.7,2.3c-1,0.1-2.3-0.8-3.7-2.4
			c-0.1-1-0.3-1.8-1-2.5c-1.7-2-5-2.6-7.4-2.8C353.4,212.3,357.1,211.1,359.3,210.7"/>
		<path class="st4" d="M363.8,209.2c0,0,4.9-2.5,8.4-0.3c0,0,7.8,3,8.2,10.2c0.6,7.2-9.8,2.5-11.4,0.8
			C369.1,219.9,372,214.5,363.8,209.2"/>
		<path class="st1" d="M363,207.6l-2.8,1.4l2.6,1.7c6.7,4.2,4.8,8.2,4.7,8.4l-0.6,1.1l0.9,1c1.4,1.4,8,4.7,11.8,3
			c1.1-0.5,2.9-1.8,2.6-5.3c-0.6-8.2-9-11.5-9.4-11.7l0.3,0.2C368.9,204.7,363.3,207.4,363,207.6 M371.4,210.4
			c0.3,0.2,7,2.8,7.4,8.9c0.1,1.5-0.4,1.8-0.6,1.8c-1.6,0.7-5.4-0.8-7.1-1.8c0.1-0.5,0.3-1.1,0.3-1.8c0-2.1-0.8-4.8-3.8-7.5
			C368.8,209.8,370.2,209.7,371.4,210.4"/>
		<path class="st4" d="M373,208.9c0,0,9-3.2,13.2,1.8c4.2,5,5.4,8.4,1.4,9.3c-4.1,0.9-4.8,0.4-5.9-0.5
			C381.7,219.4,380.9,212.7,373,208.9"/>
		<path class="st1" d="M372.4,207.2l-3.9,1.4l3.7,1.8c6.9,3.4,7.8,9,7.8,9.2l0.1,0.7l0.6,0.4c1.7,1.4,3,1.9,7.3,0.9
			c2.4-0.5,3.3-1.8,3.7-2.8c0.8-2.2-0.5-5.1-4.1-9.4C382.5,203.6,372.8,207,372.4,207.2 M384.8,211.7c3.8,4.4,3.5,5.8,3.4,6
			c0,0.1-0.4,0.3-1.1,0.5c-2.5,0.6-3.3,0.5-3.9,0.2c-0.4-1.7-1.8-5.4-5.8-8.7C379.9,209.4,383,209.7,384.8,211.7"/>
		<path class="st3" d="M391.1,217.1l62.7,0.2l0.2,13.9l-93.2,0.1c0,0-13,0.5-13.8,0.1c-1.2-0.8,4.8-7.4,10.6-11
			c0,0,8.2,8.1,10.4-0.2c0,0,8.1,5.5,11.1,3c3-2.5,2.2-0.3,2.6-3.9c0,0,3.1,3.5,7,0.8C388.7,220.1,391.2,219.2,391.1,217.1"/>
		<path class="st1" d="M123.5,314.5l0.9,0.2c0.9-4.8,5-8.3,5.1-8.4l-0.6-0.7C128.6,305.8,124.4,309.4,123.5,314.5"/>
		<path class="st1" d="M125.4,317.5l0.8,0.2c3.6-10.4,10.3-13.9,10.4-13.9l-0.4-0.8C135.9,303.2,129.1,306.7,125.4,317.5"/>
		<path class="st1" d="M360.1,260.9l0.1,0.9c7.1-1.2,7.9-5.4,7.9-5.5l-0.8-0.2C367.3,256.1,366.5,259.9,360.1,260.9"/>
		<path class="st1" d="M357.7,258l0.2,0.8c7-1.2,7.9-5.3,7.9-5.5l-0.9-0.2C364.9,253.2,364,257,357.7,258"/>
		<path class="st1" d="M354.8,253.9l0.2,0.8c7-1.2,7.9-5.3,7.9-5.5l-0.9-0.2C362,249.1,361.1,252.8,354.8,253.9"/>
		<path class="st4" d="M349,217.4c-7.5,1.2-21.7,7.2-22.5,22.8c0,0,16.4,11,19.8,11.8c3.3,0.7,31.9-16.3,31.3-20.4
			c0,0-14.4,2.1-19.8,1.2c0,0-10.1,0.7-15.2-0.4c0,0,6.1,1.6,8.2-5.5c1-3.1,11.1-0.3,6.8-7.2C357.6,219.6,356.4,216.3,349,217.4"/>
		<path class="st1" d="M348.7,215.7c-8.5,1.2-23.2,7.9-24,24.4v0.1c0,0.6,0.3,1.1,0.8,1.4c2.8,1.9,16.8,11.4,20.4,12.1
			c3.9,0.8,24.3-11.6,30.5-17.4c2.3-2.1,3.1-3.5,2.9-5c-0.1-0.4-0.3-0.9-0.7-1.2c-0.3-0.3-0.8-0.4-1.3-0.3c-0.2,0-14.1,2-19.2,1.2
			c-0.2-0.1-0.3-0.1-0.4,0c-0.1,0-3.5,0.2-7.2,0.1c0.8-1,1.6-2.2,2.1-3.9c0.2-0.2,1.6-0.4,2.4-0.6c2-0.4,4.3-0.9,5.2-2.9
			c0.2-0.5,0.3-0.9,0.3-1.4c0-1.1-0.4-2.3-1.3-3.7c0,0.1,0.1,0.2,0.1,0.3C359.1,218.4,357.4,214.3,348.7,215.7 M349.3,219.1
			c5.7-0.8,6.7,1.1,6.7,1.1c0,0.1,0.1,0.2,0.1,0.2c0.9,1.4,0.8,1.9,0.8,1.9c-0.3,0.3-1.8,0.7-2.7,0.8c-2,0.3-4.5,0.8-5.1,3.1
			c-1.4,4.5-4.4,4.5-5.6,4.4c-0.2-0.1-0.4-0.1-0.6-0.1c-0.9-0.2-1.8,0.4-2.1,1.3c0,0.1,0,0.2,0,0.4c0,0.8,0.6,1.5,1.3,1.7
			c0.1,0.1,0.3,0.1,0.5,0.1h-0.4c5.3,1.2,15,0.5,15.6,0.5c4,0.5,11.5-0.2,16.1-0.8c-6,5.5-24.5,16.3-27.5,16.4
			c-1.8-0.4-11.4-6.5-18-10.8C329.7,225.8,342,220.2,349.3,219.1 M357.5,234.5L357.5,234.5 M348.7,215.7L348.7,215.7z"/>
		<path class="st1" d="M279.5,470.6l0.1,0.1c0.2-0.2,21.6-24.9,36.4-21.5C301.2,445.6,279.8,470.3,279.5,470.6"/>
		<path class="st6" d="M279.5,470.6l0.1,0.1c0.2-0.2,21.6-24.9,36.4-21.5C301.2,445.6,279.8,470.3,279.5,470.6L279.5,470.6z"/>
		<path class="st1" d="M156.9,479v0.2c11.2-2.6,21,1.6,30.4,5.7c4.1,1.8,8,3.5,12,4.6c-3.9-1.2-7.8-3-11.9-4.8
			C177.9,480.5,168.2,476.3,156.9,479"/>
		<path class="st6" d="M156.9,479v0.2c11.2-2.6,21,1.6,30.4,5.7c4.1,1.8,8,3.5,12,4.6c-3.9-1.2-7.8-3-11.9-4.8
			C177.9,480.5,168.2,476.3,156.9,479L156.9,479z"/>
		<path class="st1" d="M203.8,75.4c-0.4,0.9,0,1.9,0.8,2.3c0.1,0.1,12.7,6.3,12.7,37.8c0,0.9,0.8,1.8,1.7,1.8s1.8-0.8,1.8-1.8
			c0-34-14.2-40.7-14.8-40.9C205.1,74.2,204.1,74.6,203.8,75.4"/>
		<path class="st1" d="M278.7,74.6c-0.4,0.8-0.1,1.8,0.7,2.3c0.1,0.1,11.8,6.6,11.8,38.1c0,1,0.8,1.8,1.8,1.8c1,0,1.7-0.8,1.7-1.8
			c0-33.9-13.1-40.9-13.7-41.2C280.1,73.4,279.1,73.7,278.7,74.6"/>
		<path class="st1" d="M251.9,79.1c-0.4,0.8-0.2,1.6,0.5,2.1c0.1,0.1,9.6,6.4,9.6,38c0,0.8,0.6,1.5,1.5,1.5c0.8,0,1.5-0.7,1.5-1.5
			c0-33.7-10.6-40.3-11-40.6C253.2,78.1,252.3,78.4,251.9,79.1"/>
		<g>
			<path class="st1" d="M268.3,212.2c0.8,0.7,1.8,0.6,2.5-0.2c0.6-0.6,0.6-1.8-0.2-2.5c-20.8-18.3-45.5-1.2-45.7-1
				c-0.8,0.6-1,1.6-0.4,2.5c0.6,0.7,1.7,1,2.5,0.4C227.9,210.8,249.6,195.7,268.3,212.2"/>
			<path class="st1" d="M269,212.8c1.5,1.7,4.1-0.2,2.8-2.2c-13.7-16.7-32.2-16.9-48-1.3c-0.7,0.6-0.7,1.8,0,2.5
				c0.7,0.7,1.8,0.7,2.5,0C240.7,198,256.1,197.4,269,212.8"/>
		</g>
		<path class="st7" d="M243.9,241.1c8.5-0.6,4,9.1,3.1,9.7c0,0,6.2,25,4.4,40.9c0,0-13.3,4.5-17.6-1.2c0,0,1.8-29.5,7.5-40.3
			C241.2,250.2,236.4,241.7,243.9,241.1"/>
		<path class="st1" d="M243.8,239.6c-3,0.2-4.4,1.7-5,2.7c-0.4,0.8-0.6,1.8-0.6,2.7c0,2.1,0.8,4.1,1.4,5.2
			c-5.5,11.4-7.2,39-7.3,40.2v0.6c0,0,9,7.1,20.7,2.5v-0.8c0.3-2.1,0.3-5.1,0.3-7.4c0-14.2-3.8-30.9-4.6-34.2
			c0.9-1.3,1.9-3.9,1.9-6.1c0-0.8-0.1-1.4-0.3-2.1C249.8,241.6,248.3,239.2,243.8,239.6 M247.2,243.7c0.2,0.4,0.2,0.8,0.2,1.3
			c0,1.8-1.1,4.2-1.5,4.6l-0.5,0.7v0.9c0,0,4.7,19.1,4.7,34.2c0,1.8,0.2,4.1,0,5.8c-3.8,1.2-11.8,1.9-14.8-1.3
			c0.3-4.7,2.2-29.5,7.3-38.9l0.4-0.8l-0.4-0.8c-0.4-0.8-1.4-2.8-1.4-4.4c0-0.5,0.1-0.9,0.3-1.2c0.3-0.7,1.2-1.1,2.5-1.2
			C245.8,242.5,246.8,242.9,247.2,243.7"/>
		<path class="st1" d="M234.6,241.3c-0.4,3.7-2,6.1-4.7,6.7c-3.1,0.8-6.8-0.6-7.8-2c-0.5-0.7-1.4-0.8-2.2-0.4
			c-0.7,0.6-0.8,1.5-0.4,2.2c1.7,2.5,6.8,4.4,11,3.2c2.4-0.6,6.3-2.7,7.1-9.4c0.1-0.8-0.6-1.6-1.4-1.7
			C235.5,239.8,234.7,240.5,234.6,241.3"/>
		<path class="st1" d="M252.4,240.7c-0.8,0.1-1.4,0.8-1.3,1.6c0.4,4.8,1.9,8.2,4.4,10c2.6,1.9,5.3,1.3,5.4,1.3c0,0,5-0.5,7.4-4.4
			c0.4-0.7,0.2-1.6-0.4-2.1c-0.7-0.4-1.6-0.2-2,0.5c-1.7,2.7-5.4,3.1-5.4,3.1c-0.2,0.1-1.7,0.3-3.2-0.8c-1.8-1.2-2.8-4.1-3.2-7.9
			C253.9,241.2,253.2,240.6,252.4,240.7"/>
		<path class="st1" d="M240.6,251c0.9,0.2,5.5,1.2,7.3-0.2l-1.2-1.4c-0.8,0.7-3.9,0.3-5.7-0.2L240.6,251L240.6,251z"/>
	</g>
</g>
<polygon class="st4" points="246.1,264.7 239.5,261.6 240.2,260.1 246.8,263.4 "/>
<polygon class="st4" points="245.9,270.2 239.3,267.1 239.9,265.7 246.6,268.8 "/>
<polygon class="st4" points="245.6,275.4 239.1,272.3 239.7,270.9 246.3,274 "/>
<polygon class="st4" points="245.6,281.8 239.1,278.6 239.7,277.3 246.3,280.4 "/>
<g>
	<path class="st1" d="M224.8,67c0,0,22-5.1,22.9,14.7c0,0,14.4,8.5,15,0.9c0.6-7.7,2.3-19-10-26.2c-7.6-4.4-15-0.9-17.3,0
		C228.6,59,224.5,59.4,224.8,67"/>
	<path class="st7" d="M254.5,84.8c3.9,1.3,8,1.8,8.4-2.2c0.6-7.7,2.3-19.1-10-26.2c-7.6-4.4-15-0.9-17.3,0c-5.9,2.3-9.8,2.8-10.5,8
		c0,0,12.1-4.7,18-3.7c5.9,1.2,10.7,7.9,10.2,14.9c-0.4,7.1-0.6,7.8,0.3,8.5S254.5,84.8,254.5,84.8"/>
	<path class="st1" d="M235.4,54.7l-0.5,0.2l-2.5,0.9c-4.6,1.7-8.2,3-8.9,8.4l-0.4,2.5l2.4-1c3.2-1.2,12.6-4.4,17.1-3.5
		c5,1,9,6.5,9,12.4c0,0.3,0,0.6,0,0.8l-0.1,1.9c-0.1,2.1-0.2,3.5-0.2,4.6c0,1.9,0.2,2.5,1.2,3.2c0.5,0.4,1,0.8,1.6,0.8H254
		c3.8,1.3,6.6,1.4,8.4,0.2c0.8-0.5,1.8-1.6,2-3.7l0.1-1.3c0.6-7.6,1.6-19-10.9-26.3C245.9,50.5,238.3,53.5,235.4,54.7 M233.5,58.8
		l2.6-1l0.5-0.2c2.7-1.1,9-3.7,15.5,0.1c10.8,6.2,10,15.7,9.3,23.3l-0.1,1.3c-0.1,1-0.4,1.3-0.6,1.4c-0.4,0.3-1.8,0.8-5.7-0.5h0
		l-0.4-0.3c-0.2-0.3-0.1-2.3,0.1-5.3l0.1-1.9c0.5-7.8-4.7-15.2-11.5-16.5c-4.3-0.8-11.4,1.2-15.5,2.5
		C229,60.6,230.7,59.8,233.5,58.8"/>
</g>
</svg>
